<?xml version="1.0" encoding="utf-8"?>
<!-- Generator: Adobe Illustrator 26.0.2, SVG Export Plug-In . SVG Version: 6.00 Build 0)  -->
<svg version="1.1" id="Layer_1" xmlns="http://www.w3.org/2000/svg" xmlns:xlink="http://www.w3.org/1999/xlink" x="0px" y="0px"
	 viewBox="0 0 458.7 176.1" enable-background="new 0 0 458.7 176.1" xml:space="preserve">
<g>
	<path fill="#FFFFFF" d="M53.4,96.7c2.3,2.3,3.5,5.7,3.5,10.1v2.2c0,4.4-1.2,7.7-3.5,10.1c-2.3,2.4-5.7,3.5-10.1,3.5H29.4V139
		c0,1-0.3,1.7-0.8,2.2c-0.5,0.5-1.3,0.8-2.2,0.8c-1,0-1.7-0.3-2.2-0.8c-0.5-0.5-0.8-1.3-0.8-2.2V96.2c0-1,0.3-1.7,0.8-2.2
		c0.5-0.5,1.3-0.8,2.2-0.8h16.8C47.7,93.2,51,94.4,53.4,96.7z M50.8,106.8c0-2.7-0.6-4.6-1.7-5.8c-1.2-1.2-3.1-1.8-5.8-1.8H29.4
		v17.3h13.8c2.7,0,4.7-0.6,5.8-1.7c1.2-1.2,1.7-3.1,1.7-5.8V106.8z"/>
</g>
<g>
	<path fill="#FFFFFF" d="M64.8,139.3c-1.8-1.8-2.7-4.5-2.7-8.2V94.3c0-1,0.3-1.7,0.8-2.2c0.5-0.5,1.3-0.8,2.2-0.8
		c1,0,1.7,0.3,2.2,0.8c0.5,0.5,0.8,1.3,0.8,2.2v36.7c0,2,0.3,3.3,1,3.9c0.6,0.6,1.9,1,3.9,1c2.1,0,3.1,1,3.1,3c0,1-0.2,1.7-0.7,2.2
		c-0.5,0.5-1.3,0.8-2.4,0.8C69.3,142,66.6,141.1,64.8,139.3z"/>
</g>
<g>
	<path fill="#FFFFFF" d="M108.3,109c2.3,2.3,3.5,5.9,3.5,10.7V139c0,1-0.3,1.7-0.8,2.2c-0.5,0.5-1.3,0.8-2.2,0.8
		c-1,0-1.7-0.3-2.2-0.8c-0.5-0.5-0.8-1.3-0.8-2.2v-1.7c-2.5,3.1-6.3,4.7-11.2,4.7h-4c-4,0-7-1-9-3c-2-2-3-5-3-9c0-4,1-7,2.9-9
		c1.9-2,5-3,9-3h15.2c-0.1-2.5-0.8-4.2-1.9-5.1c-1.2-0.9-3.2-1.4-6-1.4h-4.2c-2.4,0-4.2,0.2-5.4,0.5c-1.2,0.3-2,0.9-2.5,1.7
		c-0.4,1-0.9,1.7-1.4,2.1c-0.5,0.4-1.2,0.6-2,0.6s-1.6-0.2-2.1-0.6c-0.6-0.4-0.8-1-0.8-1.7c0-0.3,0-0.5,0.1-0.7
		c0.7-2.7,2.2-4.7,4.5-5.9c2.3-1.3,5.5-1.9,9.6-1.9h4.2C102.5,105.5,106,106.7,108.3,109z M105.5,130.5c0-0.2,0.1-0.3,0.2-0.5v-5.8
		H90.5c-1.6,0-2.9,0.2-3.7,0.5c-0.8,0.3-1.4,0.9-1.7,1.7c-0.3,0.8-0.5,2-0.5,3.7c0,1.6,0.2,2.9,0.5,3.7c0.3,0.8,0.9,1.4,1.7,1.7
		c0.8,0.3,2,0.5,3.7,0.5h4c6.1,0,9.7-1.7,10.9-5C105.4,130.8,105.5,130.7,105.5,130.5z"/>
</g>
<g>
	<path fill="#FFFFFF" d="M148.6,109c2.3,2.3,3.5,5.9,3.5,10.7V139c0,1-0.3,1.7-0.8,2.2c-0.5,0.5-1.3,0.8-2.2,0.8
		c-1,0-1.7-0.3-2.2-0.8c-0.5-0.5-0.8-1.3-0.8-2.2v-19.4c0-2.1-0.2-3.7-0.7-4.9c-0.5-1.2-1.3-2-2.4-2.4c-1.2-0.5-2.8-0.7-4.9-0.7h-2
		c-3,0-5.6,0.3-7.7,1c-2.1,0.7-3.3,1.7-3.6,3.1V139c0,1-0.3,1.7-0.8,2.2c-0.5,0.5-1.3,0.8-2.2,0.8c-1,0-1.7-0.3-2.2-0.8
		c-0.5-0.5-0.8-1.3-0.8-2.2v-30.5c0-2,1-3,3-3c2,0,3,1,3,3v1.2c2.5-2.8,6.3-4.2,11.2-4.2h2C142.7,105.5,146.3,106.7,148.6,109z"/>
</g>
<g>
	<path fill="#FFFFFF" d="M164.2,126.2v1.7c0,2.1,0.2,3.7,0.7,4.9c0.5,1.1,1.3,1.9,2.4,2.4c1.2,0.5,2.8,0.7,4.9,0.7h5.9
		c2.4,0,4.3-0.2,5.4-0.7c1.2-0.5,2-1.3,2.3-2.4c0.3-1,0.7-1.7,1.2-2.1c0.5-0.5,1.2-0.7,2.1-0.7c0.9,0,1.6,0.2,2.1,0.6
		c0.5,0.4,0.8,1,0.8,1.8c0,0.3,0,0.6-0.1,0.7c-1.1,5.9-5.7,8.9-13.8,8.9h-5.9c-4.8,0-8.4-1.2-10.7-3.5c-2.3-2.3-3.5-5.8-3.5-10.6
		v-8.4c0-4.8,1.2-8.4,3.5-10.7c2.3-2.3,5.9-3.4,10.7-3.4h5.9c4.8,0,8.4,1.2,10.7,3.5c2.3,2.3,3.5,5.9,3.5,10.7v3.6
		c0,1-0.3,1.7-0.8,2.2c-0.5,0.5-1.3,0.8-2.2,0.8H164.2z M164.2,120.2h22v-0.6c0-2.1-0.2-3.7-0.7-4.9c-0.5-1.2-1.3-2-2.4-2.4
		c-1.2-0.5-2.8-0.7-4.9-0.7h-5.9c-2.1,0-3.7,0.2-4.9,0.6c-1.2,0.5-2,1.3-2.4,2.4c-0.5,1.2-0.7,2.8-0.7,5V120.2z"/>
</g>
<g>
	<path fill="#FFFFFF" d="M217.2,139c0,1-0.3,1.7-0.8,2.2c-0.5,0.5-1.3,0.8-2.2,0.8c-4.8,0-8.3-1.1-10.5-3.4
		c-2.3-2.3-3.4-5.7-3.4-10.4v-16.6h-3.5c-1,0-1.7-0.3-2.2-0.8c-0.5-0.5-0.8-1.3-0.8-2.2c0-2,1-3,3-3h3.5v-5.3c0-1,0.3-1.7,0.8-2.2
		c0.5-0.5,1.3-0.8,2.2-0.8c1,0,1.7,0.3,2.2,0.8c0.5,0.5,0.8,1.3,0.8,2.2v5.3h8.3c2,0,3,1,3,3c0,1-0.3,1.7-0.8,2.2
		c-0.5,0.5-1.3,0.8-2.2,0.8h-8.3v16.6c0,2.1,0.2,3.6,0.7,4.8c0.5,1.1,1.3,1.9,2.4,2.3c1.1,0.5,2.7,0.7,4.8,0.7
		C216.1,136,217.2,137,217.2,139z"/>
</g>
<g>
	<path fill="#FFFFFF" d="M231.9,138.1c-2.6-2.6-3.9-6.7-3.9-12.2v-16.6c0-5.5,1.3-9.6,3.9-12.2c2.6-2.6,6.7-3.9,12.1-3.9h8.7
		c4.5,0,8,0.9,10.3,2.8c2.4,1.9,3.8,4.8,4.1,8.8c0.1,1,0,1.8-0.6,2.3c-0.5,0.5-1.3,0.8-2.3,0.8c-1,0-1.7-0.3-2.2-0.8
		c-0.5-0.5-0.8-1.3-1-2.3c-0.2-2.2-1-3.6-2.2-4.4c-1.2-0.8-3.3-1.2-6.2-1.2H244c-2.6,0-4.6,0.2-6,0.9c-1.4,0.6-2.5,1.7-3.1,3.1
		c-0.6,1.4-0.9,3.5-0.9,6.1v16.6c0,2.6,0.3,4.7,0.9,6.1c0.6,1.4,1.6,2.4,3.1,3.1c1.4,0.6,3.4,0.9,6.1,0.9h8.6c2.3,0,4.1-0.3,5.3-0.8
		c1.2-0.5,2.1-1.4,2.6-2.6c0.5-1.2,0.8-3,0.8-5.3v-3.4l-5.6-0.1c-2,0-3-1-3-3c0-1,0.3-1.7,0.8-2.2c0.5-0.5,1.3-0.8,2.2-0.8l8.6,0.1
		c1,0,1.7,0.3,2.2,0.8c0.5,0.5,0.8,1.3,0.8,2.2v6.4c0,5.1-1.2,8.8-3.6,11.2s-6.1,3.5-11.1,3.5h-8.6
		C238.6,142,234.5,140.7,231.9,138.1z"/>
</g>
<g>
	<path fill="#FFFFFF" d="M301.5,109c2.3,2.3,3.5,5.9,3.5,10.7V139c0,1-0.3,1.7-0.8,2.2c-0.5,0.5-1.3,0.8-2.2,0.8
		c-1,0-1.7-0.3-2.2-0.8c-0.5-0.5-0.8-1.3-0.8-2.2v-1.7c-2.5,3.1-6.3,4.7-11.2,4.7h-4c-4,0-7-1-9-3c-2-2-3-5-3-9c0-4,1-7,2.9-9
		c1.9-2,5-3,9-3h15.2c-0.1-2.5-0.8-4.2-1.9-5.1c-1.2-0.9-3.2-1.4-6-1.4h-4.2c-2.4,0-4.2,0.2-5.4,0.5c-1.2,0.3-2,0.9-2.5,1.7
		c-0.4,1-0.9,1.7-1.4,2.1c-0.5,0.4-1.2,0.6-2,0.6s-1.6-0.2-2.1-0.6s-0.8-1-0.8-1.7c0-0.3,0-0.5,0.1-0.7c0.7-2.7,2.2-4.7,4.5-5.9
		c2.3-1.3,5.5-1.9,9.6-1.9h4.2C295.6,105.5,299.2,106.7,301.5,109z M298.7,130.5c0-0.2,0.1-0.3,0.2-0.5v-5.8h-15.3
		c-1.6,0-2.9,0.2-3.7,0.5c-0.8,0.3-1.4,0.9-1.7,1.7c-0.3,0.8-0.5,2-0.5,3.7c0,1.6,0.2,2.9,0.5,3.7c0.3,0.8,0.9,1.4,1.7,1.7
		c0.8,0.3,2,0.5,3.7,0.5h4c6.1,0,9.7-1.7,10.9-5C298.6,130.8,298.6,130.7,298.7,130.5z"/>
</g>
<g>
	<path fill="#FFFFFF" d="M360.5,108.7c2,2.1,3,5.7,3,10.6V139c0,2-1,3-3,3s-3-1-3-3v-19.7c0-2.7-0.5-4.7-1.6-5.9
		c-1.1-1.2-2.8-1.8-5.1-1.8h-3c-2.7,0-4.7,0.6-5.9,1.8c-1.2,1.2-1.8,3.2-1.8,5.9V139c0,2-1,3-3,3c-2,0-3-1-3-3v-19.7
		c0-2.7-0.5-4.7-1.6-5.9s-2.8-1.8-5.1-1.8h-3c-2.7,0-4.7,0.6-5.9,1.8c-1.2,1.2-1.8,3.2-1.8,5.9V139c0,2-1,3-3,3c-2,0-3-1-3-3v-30.5
		c0-2,1-3,3-3c2,0,3,1,3,3v1.7c1.2-1.6,2.6-2.8,4.2-3.6c1.5-0.7,3.4-1.1,5.5-1.1h0.9c3,0,5.3,0.4,7,1.2c1.7,0.8,3,2.2,3.9,4
		c1.3-1.9,2.7-3.3,4.1-4.1s3.2-1.2,5.4-1.2h3C355.3,105.5,358.6,106.6,360.5,108.7z"/>
</g>
<g>
	<path fill="#FFFFFF" d="M374.7,126.2v1.7c0,2.1,0.2,3.7,0.7,4.9c0.5,1.1,1.3,1.9,2.4,2.4c1.2,0.5,2.8,0.7,4.9,0.7h5.9
		c2.4,0,4.3-0.2,5.4-0.7c1.2-0.5,2-1.3,2.3-2.4c0.3-1,0.7-1.7,1.2-2.1c0.5-0.5,1.2-0.7,2.1-0.7c0.9,0,1.6,0.2,2.1,0.6
		c0.5,0.4,0.8,1,0.8,1.8c0,0.3,0,0.6-0.1,0.7c-1.1,5.9-5.7,8.9-13.8,8.9h-5.9c-4.8,0-8.4-1.2-10.7-3.5c-2.3-2.3-3.5-5.8-3.5-10.6
		v-8.4c0-4.8,1.2-8.4,3.5-10.7c2.3-2.3,5.9-3.4,10.7-3.4h5.9c4.8,0,8.4,1.2,10.7,3.5c2.3,2.3,3.5,5.9,3.5,10.7v3.6
		c0,1-0.3,1.7-0.8,2.2c-0.5,0.5-1.3,0.8-2.2,0.8H374.7z M374.7,120.2h22v-0.6c0-2.1-0.2-3.7-0.7-4.9c-0.5-1.2-1.3-2-2.4-2.4
		c-1.2-0.5-2.8-0.7-4.9-0.7h-5.9c-2.1,0-3.7,0.2-4.9,0.6c-1.2,0.5-2,1.3-2.4,2.4c-0.5,1.2-0.7,2.8-0.7,5V120.2z"/>
</g>
<g>
	<path fill="#FFFFFF" d="M406.5,134.4c0-0.1-0.1-0.4-0.1-0.6c0-0.8,0.3-1.5,0.8-1.9c0.6-0.5,1.3-0.7,2.2-0.7c0.9,0,1.6,0.2,2.1,0.7
		c0.5,0.5,0.9,1.2,1.2,2.3c0.3,0.7,0.8,1.2,1.4,1.4c0.6,0.2,1.7,0.4,3.1,0.4H429c1.9,0,3.1-0.3,3.8-0.9c0.6-0.6,1-1.9,1-3.8
		c0-1.9-0.3-3.2-1-3.8c-0.6-0.6-1.9-0.9-3.8-0.9h-11.6c-7,0-10.4-3.5-10.4-10.4c0-3.6,0.9-6.2,2.6-7.9s4.3-2.6,7.8-2.6h11.2
		c5.7,0,9,2.4,10,7.1c0,0.1,0.1,0.4,0.1,0.6c0,0.8-0.3,1.4-0.8,1.8c-0.6,0.5-1.3,0.7-2.2,0.7s-1.6-0.2-2.1-0.7
		c-0.5-0.5-0.8-1.2-1.1-2.1c-0.3-0.6-0.7-1-1.3-1.2c-0.6-0.2-1.4-0.3-2.6-0.3h-11.2c-1.2,0-2.2,0.1-2.8,0.3c-0.6,0.2-1,0.6-1.3,1.3
		c-0.2,0.6-0.3,1.6-0.3,2.9c0,1.7,0.3,2.9,0.9,3.5c0.6,0.6,1.8,0.9,3.5,0.9H429c7.2,0,10.8,3.6,10.8,10.8c0,7.2-3.6,10.8-10.8,10.8
		h-11.8C411.1,142,407.5,139.5,406.5,134.4z"/>
</g>
<g>
	<path fill="#FFFFFF" d="M267.5,39.8L267.5,39.8c0-3-0.3-5.3-0.8-7.7c-0.1-0.6-0.5-1.1-0.9-1.4c-0.5-0.3-1-0.4-1.6-0.3
		c-5,1.1-9.5,3.2-13.5,6.1c-4.4,3.3-7.9,7.5-10.3,12.5c-0.3,0.1-0.7,0.1-1,0.2c-0.3,0.1-0.6,0.1-0.8,0.2c-3.6,0.7-6.4,2.5-8.3,5.3
		c-1.5,2.3-3,4.6-4.5,6.9l-1.4,2.1c-0.4,0.6-0.5,1.4-0.2,2.1c0.3,0.7,1,1.1,1.7,1.2c2.6,0.3,5.2,0.6,7.8,0.9c0.1,0,0.2,0,0.3,0.1
		c2.8,3.6,6.5,5.9,10.9,7l0.1,0.1c1.3,2.3,2.6,4.5,4,6.7c0.4,0.7,1.1,1.2,1.8,1.2c0,0,0,0,0,0c0.7,0,1.4-0.4,1.8-1.1
		c1.8-2.8,3.7-5.7,5.5-8.5c1.5-2.3,2.1-4.8,2-7.6c-0.1-1.2-0.3-2.3-0.5-3.3c-0.1-0.3-0.2-0.7-0.2-1c0-0.1,0-0.1,0-0.1
		C264.7,55,267.4,47.8,267.5,39.8z M250.3,70.9l1.2-1.9c0,0,0.1-0.1,0.2-0.2c1.5-1.3,2.9-2.6,4.3-3.9c0.4,2.2,0,4.1-1.1,5.9
		c-0.9,1.5-1.9,3-2.9,4.5c-0.3,0.5-0.7,1.1-1,1.6c-0.7-1.2-1.5-2.5-2.2-3.7C249.3,72.5,249.8,71.7,250.3,70.9z M251.6,63.3
		c-0.4,0.3-0.7,0.7-1.1,1c-2-0.4-3.8-1.3-5.6-2.5l-0.3-0.2c-1-0.7-2.3-0.6-3,0.4c-0.7,1-0.5,2.2,0.5,2.9c1,0.8,2.1,1.4,3.3,2
		c0.7,0.3,1.4,0.6,2,0.9c-0.7,1-1.3,2.1-2,3.1c-3.1-0.9-5.7-2.6-7.8-5c0.4-0.6,0.8-1.2,1.2-1.8c0.5-0.7,0.9-1.4,1.4-2.2
		c0.3-0.4,0.5-0.9,0.7-1.5c0.3-0.8,0.5-1.7,0.8-2.5c0.5-1.8,1.1-3.7,1.9-5.4c2.9-6.8,7.8-12,14.4-15.4c1.5-0.8,3.2-1.4,5.2-2
		c0.2,1.7,0.3,3,0.3,4.3c-0.1,7.4-2.6,14-7.3,19.6C254.8,60.6,253.2,62,251.6,63.3z M236.8,59.4c0,0-0.1,0.1-0.1,0.1l-0.8,1.3
		c-0.6,0.9-1.2,1.9-1.9,2.9c-1.3-0.2-2.5-0.3-3.8-0.4l-0.5-0.1l0.5-0.8c1.1-1.6,2.1-3.3,3.2-4.9c1.3-1.9,3-3.2,5.2-3.7
		C238,55.6,237.4,57.5,236.8,59.4z"/>
	<path fill="#FFFFFF" d="M231.9,79.2c1-1.2,2-2.4,2.9-3.6c0.7-0.9,0.6-2.2-0.3-2.9c-0.9-0.7-2.2-0.6-2.9,0.3
		c-0.1,0.2-0.3,0.3-0.4,0.5l-0.1,0.2c-5.1,6.5-10.3,11.7-15.7,16c-3.7,2.9-6.9,5-10.2,6.5c-1.2,0.6-2.3,1-3.3,1.3
		c-0.7,0.2-1.2,0.8-1.4,1.5c-0.2,0.7,0.1,1.5,0.6,2l0,0c0.4,0.4,0.9,0.6,1.4,0.6c0.2,0,0.4,0,0.6-0.1c1.2-0.4,2.5-0.9,3.9-1.5
		c4.3-2,8.5-4.8,13.2-8.8C224.2,87.7,228,83.8,231.9,79.2z"/>
	<path fill="#FFFFFF" d="M239,78.7c-0.9-0.3-1.8,0-2.5,0.9c-3.5,4.6-7.3,8.8-11.4,12.5c-0.5,0.4-0.7,1-0.7,1.6
		c0,0.6,0.3,1.2,0.8,1.5l0,0c0.4,0.3,0.8,0.5,1.3,0.5c0.5,0,1-0.2,1.4-0.5l0.7-0.6c4.1-3.8,7.9-8,11.3-12.5c0.3-0.4,0.6-0.8,0.6-1.4
		C240.5,79.8,239.9,79,239,78.7z"/>
	<path fill="#FFFFFF" d="M252.6,45.6c-0.5,0-1.1,0.2-1.5,0.6c-0.4,0.4-0.6,0.9-0.6,1.5v0c0,1.3,0.9,2.3,2.1,2.3c0,0,0,0,0,0
		c0.6,0,1.1-0.2,1.5-0.6c0.4-0.4,0.6-0.9,0.6-1.5C254.7,46.7,253.8,45.6,252.6,45.6z"/>
	<path fill="#FFFFFF" d="M249.5,50.4c-0.5,0-1.1,0.2-1.5,0.6c-0.4,0.4-0.6,0.9-0.6,1.5c0,1.3,0.9,2.2,2.1,2.2c0,0,0,0,0,0
		c0.6,0,1.1-0.2,1.5-0.6c0.4-0.4,0.6-0.9,0.6-1.5C251.6,51.4,250.7,50.4,249.5,50.4z"/>
</g>
</svg>
