<?xml version="1.0" encoding="UTF-8"?>
<svg width="161px" height="39px" viewBox="0 0 161 39" version="1.1" xmlns="http://www.w3.org/2000/svg" xmlns:xlink="http://www.w3.org/1999/xlink">
    <!-- Generator: Sketch 55.2 (78181) - https://sketchapp.com -->
    <title>Group 42</title>
    <desc>Created with Sketch.</desc>
    <g id="Page-1" stroke="none" stroke-width="1" fill="none" fill-rule="evenodd">
        <g id="One-genre" transform="translate(-649.000000, -12.000000)" fill="#FFFFFF">
            <g id="Group-42" transform="translate(642.000000, 7.000000)">
                <path d="M73.0999,26.2998 C71.2999,16.0998 60.3999,5.0998 40.4999,5.0998 C20.6999,5.0998 9.6999,16.0998 7.8999,26.2998 C6.5999,33.4998 9.9999,39.5998 16.3999,41.9008 C20.2999,43.2998 23.8999,43.1998 27.0999,41.4998 C33.7999,38.0998 36.3999,29.4998 36.4999,29.1998 C36.5999,28.7998 36.5999,28.4008 36.2999,27.9998 C36.0999,27.6998 35.6999,27.3998 35.2999,27.3998 L24.7999,25.7998 L26.1999,21.3998 C26.3999,20.5998 25.9999,19.8998 25.1999,19.5998 C24.3999,19.3998 23.5999,19.7998 23.3999,20.4998 L21.8999,25.2998 L16.9999,24.4998 C16.1999,24.3998 15.4999,24.8998 15.3999,25.6998 C15.2999,26.4998 15.7999,27.1998 16.5999,27.2998 L21.0999,27.9998 L19.6999,32.9008 C19.4999,33.6998 19.8999,34.4008 20.6999,34.6998 C20.7999,34.6998 20.9999,34.7998 21.0999,34.7998 C21.6999,34.7998 22.2999,34.4008 22.4999,33.7998 L24.0999,28.5998 L33.2999,29.9998 C32.2999,32.4008 29.9999,36.9998 25.8999,39.0998 C23.3999,40.4008 20.4999,40.4008 17.3999,39.2998 C12.2999,37.4998 9.7999,32.6998 10.7999,26.8998 C12.3999,17.7998 22.3999,8.0998 40.5999,8.0998 C58.6999,7.9998 68.6999,17.6998 70.2999,26.7998 C71.2999,32.5998 68.7999,37.4008 63.6999,39.1998 C60.5999,40.2998 57.7999,40.1998 55.2999,38.9998 C49.6999,36.1998 47.3999,28.4998 47.2999,28.4008 C47.0999,27.5998 46.2999,27.1998 45.4999,27.3998 C44.6999,27.5998 44.2999,28.4008 44.4999,29.1998 C44.5999,29.5998 47.1999,38.1998 53.8999,41.4998 C55.6999,42.4008 57.4999,42.7998 59.4999,42.7998 C61.1999,42.7998 62.8999,42.4998 64.6999,41.7998 C71.0999,39.5998 74.3999,33.4998 73.0999,26.2998" id="Fill-4"></path>
                <path d="M58.9002,22.2998 C58.9002,21.1998 58.0002,20.2998 56.9002,20.2998 C55.8002,20.2998 54.9002,21.1998 54.9002,22.2998 C54.9002,23.3998 55.8002,24.2998 56.9002,24.2998 C58.0002,24.2998 58.9002,23.3998 58.9002,22.2998" id="Fill-6"></path>
                <path d="M56.9002,28.5 C56.9002,27.4 56.0002,26.5 54.9002,26.5 C53.8002,26.5 52.9002,27.4 52.9002,28.5 C52.9002,29.6 53.8002,30.5 54.9002,30.5 C56.0002,30.4 56.9002,29.6 56.9002,28.5" id="Fill-8"></path>
                <path d="M62.9002,32 C62.9002,30.9 62.0002,30 60.9002,30 C59.8002,30 58.9002,30.9 58.9002,32 C58.9002,33.1 59.8002,34 60.9002,34 C62.0002,34 62.9002,33.1 62.9002,32" id="Fill-10"></path>
                <path d="M65.0999,25.2998 C65.0999,24.1998 64.1999,23.2998 63.0999,23.2998 C61.9999,23.2998 61.0999,24.1998 61.0999,25.2998 C61.0999,26.3998 61.9999,27.2998 63.0999,27.2998 C64.1999,27.2998 65.0999,26.3998 65.0999,25.2998" id="Fill-12"></path>
                <path d="M81.6048,23.2139 C82.6338,23.6589 83.7538,23.8849 84.9358,23.8849 C85.9248,23.8849 86.8848,23.7269 87.7888,23.4129 C88.6938,23.0989 89.5458,22.6139 90.3298,21.9639 C90.5018,21.8109 90.6248,21.6359 90.6938,21.4449 C90.7588,21.2699 90.7918,21.0889 90.7918,20.9059 L90.7918,15.8869 C90.7918,15.4669 90.6578,15.1149 90.3928,14.8389 C90.1238,14.5609 89.7718,14.4209 89.3458,14.4209 L85.4178,14.4209 C85.0198,14.4209 84.6758,14.5429 84.3958,14.7849 C84.1048,15.0369 83.9508,15.3749 83.9508,15.7609 C83.9508,16.1489 84.1048,16.4859 84.3958,16.7379 C84.6748,16.9799 85.0188,17.1019 85.4178,17.1019 L87.9408,17.1019 L87.9408,20.2329 C87.5338,20.4829 87.1758,20.6639 86.8268,20.7979 C85.5538,21.2869 84.0168,21.2499 82.7588,20.6799 C82.0788,20.3729 81.4728,19.9389 80.9558,19.3899 C80.4378,18.8389 80.0288,18.1899 79.7398,17.4609 C79.4508,16.7319 79.3038,15.9339 79.3038,15.0889 C79.3038,14.2589 79.4508,13.4679 79.7398,12.7389 C80.0288,12.0089 80.4378,11.3599 80.9558,10.8099 C81.4728,10.2599 82.0808,9.8219 82.7618,9.5079 C83.4358,9.1959 84.1678,9.0379 84.9358,9.0379 C85.7898,9.0379 86.4778,9.1479 86.9808,9.3649 C87.4958,9.5869 88.0038,9.9119 88.4978,10.3389 C88.8098,10.5949 89.1528,10.7129 89.5218,10.6969 C89.8858,10.6789 90.1998,10.5449 90.4558,10.2979 C90.7168,10.0469 90.8548,9.7219 90.8548,9.3569 C90.8548,9.2049 90.8408,9.0679 90.8128,8.9439 C90.7808,8.8089 90.7198,8.6749 90.6298,8.5429 C90.5418,8.4179 90.4258,8.3009 90.2978,8.2049 C89.4838,7.5379 88.6588,7.0499 87.8448,6.7559 C87.0298,6.4639 86.0508,6.3149 84.9358,6.3149 C83.7408,6.3149 82.6158,6.5449 81.5908,6.9979 C80.5718,7.4489 79.6668,8.0809 78.9008,8.8759 C78.1358,9.6699 77.5308,10.6069 77.1018,11.6619 C76.6718,12.7159 76.4548,13.8699 76.4548,15.0889 C76.4548,16.3229 76.6718,17.4869 77.1008,18.5479 C77.5298,19.6099 78.1358,20.5499 78.9008,21.3449 C79.6668,22.1399 80.5758,22.7689 81.6048,23.2139" id="Fill-14"></path>
                <path d="M97.8504,21.1191 C97.2134,21.1191 96.6564,20.9691 96.1444,20.6591 C95.6354,20.3511 95.2284,19.9251 94.9344,19.3911 C94.6374,18.8551 94.4874,18.2411 94.4874,17.5671 C94.4874,16.8801 94.6374,16.2591 94.9344,15.7221 C95.2284,15.1881 95.6354,14.7621 96.1444,14.4541 C96.6574,14.1451 97.2154,13.9941 97.8504,13.9941 C98.4914,13.9941 99.0684,14.1481 99.5644,14.4531 C100.0664,14.7601 100.4664,15.1861 100.7544,15.7201 C101.0444,16.2551 101.1924,16.8771 101.1924,17.5671 C101.1924,18.2441 101.0444,18.8591 100.7544,19.3941 C100.4664,19.9271 100.0664,20.3531 99.5644,20.6611 C99.0694,20.9651 98.4924,21.1191 97.8504,21.1191 M97.4304,23.7591 C98.5204,23.7591 99.5134,23.4821 100.3794,22.9351 C100.6364,22.7741 100.8804,22.5891 101.1134,22.3821 C101.1404,22.7351 101.2784,23.0371 101.5224,23.2821 C102.0734,23.8311 103.0374,23.8301 103.5854,23.2821 C103.8614,23.0071 104.0004,22.6611 104.0004,22.2501 L104.0004,17.5671 C104.0004,16.3991 103.7254,15.3331 103.1824,14.3981 C102.6434,13.4631 101.9024,12.7151 100.9804,12.1721 C100.0584,11.6301 99.0054,11.3541 97.8504,11.3541 C96.6964,11.3541 95.6404,11.6291 94.7104,12.1721 C93.7824,12.7141 93.0384,13.4631 92.4964,14.3971 C91.9544,15.3311 91.6794,16.3981 91.6794,17.5671 C91.6794,18.7311 91.9314,19.7901 92.4274,20.7161 C92.9264,21.6461 93.6174,22.3921 94.4794,22.9351 C95.3474,23.4821 96.3404,23.7591 97.4304,23.7591" id="Fill-16"></path>
                <path d="M112.5506,16.2441 L112.5506,22.2501 C112.5506,22.6601 112.6906,23.0071 112.9646,23.2811 C113.5246,23.8421 114.5156,23.8221 115.0426,23.2771 C115.3076,23.0041 115.4426,22.6581 115.4426,22.2501 L115.4426,16.3281 C115.4426,15.6361 115.6396,15.0881 116.0446,14.6521 C116.4446,14.2231 116.9416,14.0151 117.5666,14.0151 C118.1686,14.0151 118.6396,14.1891 119.0036,14.5481 C119.3626,14.9011 119.5436,15.4711 119.5436,16.2441 L119.5436,22.2501 C119.5436,22.6611 119.6836,23.0081 119.9566,23.2821 C120.2326,23.5561 120.5796,23.6961 120.9886,23.6961 C121.4146,23.6961 121.7676,23.5551 122.0356,23.2771 C122.3016,23.0021 122.4356,22.6571 122.4356,22.2501 L122.4356,16.2441 C122.4356,15.2241 122.2486,14.3371 121.8806,13.6081 C121.5056,12.8651 120.9716,12.2931 120.2926,11.9071 C119.6216,11.5261 118.8466,11.3331 117.9866,11.3331 C117.0156,11.3331 116.1386,11.5471 115.3786,11.9681 C114.9886,12.1841 114.6366,12.4521 114.3276,12.7641 C114.0336,12.4161 113.6896,12.1291 113.2996,11.9071 C111.9336,11.1311 109.9696,11.1381 108.5926,11.9761 C108.4776,12.0461 108.3696,12.1221 108.2696,12.2001 C108.2066,12.0761 108.1246,11.9641 108.0246,11.8631 C107.4976,11.3371 106.5156,11.3181 105.9546,11.8591 C105.6766,12.1271 105.5356,12.4791 105.5356,12.9051 L105.5356,22.2501 C105.5356,22.6601 105.6756,23.0071 105.9496,23.2821 C106.5126,23.8431 107.5026,23.8231 108.0296,23.2771 L108.0296,23.2771 C108.2946,23.0021 108.4286,22.6571 108.4286,22.2501 L108.4286,16.3281 C108.4286,15.6371 108.6286,15.0891 109.0396,14.6541 C109.4456,14.2241 109.9466,14.0151 110.5726,14.0151 C111.1766,14.0151 111.6476,14.1891 112.0106,14.5481 C112.3686,14.9011 112.5506,15.4711 112.5506,16.2441" id="Fill-18"></path>
                <path d="M129.6053,13.9101 C130.2273,13.9101 130.7583,14.0521 131.1843,14.3311 C131.6213,14.6181 131.9483,14.9981 132.1863,15.4931 C132.2913,15.7101 132.3713,15.9551 132.4323,16.2471 L126.3893,16.2471 C126.4483,16.0301 126.5193,15.8371 126.6043,15.6621 C126.8683,15.1141 127.2453,14.6951 127.7553,14.3791 C128.2593,14.0681 128.8813,13.9101 129.6053,13.9101 M132.6163,12.1341 C131.7763,11.6171 130.7633,11.3541 129.6053,11.3541 C128.4373,11.3541 127.3843,11.6221 126.4773,12.1501 C125.5693,12.6791 124.8463,13.4191 124.3323,14.3511 C123.8203,15.2801 123.5603,16.3621 123.5603,17.5671 C123.5603,18.7631 123.8353,19.8401 124.3773,20.7691 C124.9203,21.7001 125.6833,22.4401 126.6423,22.9671 C127.5973,23.4931 128.7003,23.7591 129.9203,23.7591 C130.6033,23.7591 131.3253,23.6331 132.0663,23.3831 C132.8123,23.1321 133.4473,22.8001 133.9493,22.4011 C134.3743,22.0771 134.4463,21.6951 134.4313,21.4311 C134.4133,21.0771 134.2433,20.7561 133.9213,20.4731 C133.6673,20.2581 133.3733,20.1521 133.0283,20.1631 C132.7073,20.1731 132.4063,20.2791 132.1313,20.4801 C131.8823,20.6661 131.5443,20.8361 131.1283,20.9831 C129.9473,21.4031 128.8383,21.2121 127.9843,20.7271 C127.4293,20.4121 126.9893,19.9781 126.6743,19.4371 C126.5413,19.2061 126.4343,18.9521 126.3573,18.6771 L133.8693,18.6771 C134.2483,18.6771 134.5693,18.5541 134.8213,18.3091 C135.0753,18.0651 135.2093,17.7431 135.2093,17.3781 C135.2093,16.2211 134.9883,15.1801 134.5513,14.2841 C134.1083,13.3761 133.4583,12.6531 132.6163,12.1341" id="Fill-20"></path>
                <path d="M138.6727,23.2851 C139.5417,23.5991 140.4997,23.7591 141.5197,23.7591 C142.5637,23.7591 143.4537,23.5921 144.1647,23.2631 C144.8907,22.9271 145.4517,22.4651 145.8317,21.8901 C146.2147,21.3121 146.4087,20.6561 146.4087,19.9401 C146.4087,19.3111 146.2557,18.7461 145.9527,18.2621 C145.6527,17.7801 145.1637,17.3571 144.4977,17.0051 C143.8617,16.6681 142.9897,16.3881 141.9087,16.1701 C141.1777,16.0221 140.6217,15.8701 140.2547,15.7191 C139.8577,15.5561 139.6997,15.4091 139.6377,15.3151 C139.5447,15.1731 139.4997,15.0161 139.4997,14.8371 C139.4997,14.6621 139.5487,14.4381 139.9317,14.2491 C140.6337,13.9031 141.8427,13.9031 142.6257,14.1451 C142.9737,14.2531 143.3057,14.4571 143.6147,14.7551 C143.8787,15.0001 144.2037,15.1591 144.5807,15.2271 C144.9867,15.3001 145.3497,15.2311 145.6717,15.0111 C145.9827,14.7781 146.1567,14.4671 146.1767,14.1141 C146.1977,13.7681 146.0747,13.4411 145.8207,13.1521 C145.3627,12.5871 144.7407,12.1401 143.9717,11.8241 C142.6277,11.2701 140.7757,11.1651 139.1907,11.7221 C138.4747,11.9731 137.8787,12.3611 137.4177,12.8761 C136.9367,13.4131 136.6927,14.0951 136.6927,14.9001 C136.6927,15.8211 137.0567,16.6081 137.7747,17.2401 C138.4687,17.8501 139.5317,18.2901 141.0327,18.5871 C142.3147,18.8181 142.8817,19.0881 143.1317,19.2751 C143.5467,19.5831 143.5857,19.8681 143.5797,20.0541 C143.5737,20.2391 143.5177,20.5141 143.0957,20.7771 C142.7307,21.0041 142.1717,21.1191 141.4357,21.1191 C140.8467,21.1191 140.3077,21.0131 139.8327,20.8051 C139.3597,20.5971 139.0187,20.3771 138.8117,20.1461 C138.5547,19.8721 138.2417,19.7091 137.8807,19.6621 C137.5057,19.6141 137.1307,19.7371 136.7767,20.0201 C136.4567,20.2641 136.2707,20.5861 136.2227,20.9761 C136.1737,21.3721 136.2987,21.7411 136.5917,22.0531 C137.0907,22.5521 137.7907,22.9671 138.6727,23.2851" id="Fill-22"></path>
                <path d="M89.0213,26.9341 C88.7373,27.2091 88.5923,27.5651 88.5923,27.9911 L88.5923,37.7981 C88.5923,38.4761 88.4193,39.0811 88.0773,39.5971 C87.7303,40.1181 87.2443,40.5341 86.6303,40.8311 C86.0063,41.1341 85.2733,41.2871 84.4523,41.2871 C83.6003,41.2871 82.8373,41.1331 82.1853,40.8291 C81.5433,40.5301 81.0363,40.1141 80.6763,39.5921 C80.3183,39.0691 80.1443,38.4831 80.1443,37.7981 L80.1443,27.9911 C80.1443,27.5681 80.0053,27.2141 79.7293,26.9381 C79.1903,26.4001 78.2153,26.3791 77.6393,26.9341 C77.3543,27.2091 77.2103,27.5651 77.2103,27.9911 L77.2103,37.7981 C77.2103,39.0021 77.5243,40.0891 78.1443,41.0281 C78.7593,41.9641 79.6263,42.7041 80.7203,43.2281 C81.8013,43.7481 83.0573,44.0111 84.4523,44.0111 C85.8063,44.0111 87.0283,43.7471 88.0833,43.2261 C89.1483,42.7021 89.9933,41.9611 90.5953,41.0251 C91.1993,40.0851 91.5053,38.9991 91.5053,37.7981 L91.5053,27.9911 C91.5053,27.5711 91.3723,27.2191 91.1063,26.9431 C90.5823,26.3991 89.5993,26.3781 89.0213,26.9341" id="Fill-24"></path>
                <path d="M102.3377,31.9971 C101.5217,31.5571 100.5887,31.3331 99.5657,31.3331 C98.5817,31.3331 97.6807,31.5541 96.8867,31.9881 C96.6807,32.1011 96.4817,32.2281 96.2927,32.3681 C96.2257,32.1681 96.1167,31.9921 95.9677,31.8421 C95.4417,31.3171 94.4577,31.2981 93.8977,31.8381 C93.6197,32.1051 93.4797,32.4581 93.4797,32.8841 L93.4797,42.2501 C93.4797,42.6601 93.6177,43.0081 93.8927,43.2821 C94.4537,43.8421 95.4447,43.8231 95.9717,43.2771 C96.2357,43.0031 96.3707,42.6571 96.3707,42.2501 L96.3707,36.3281 C96.3707,35.8851 96.4857,35.5051 96.7227,35.1681 C96.9657,34.8221 97.3007,34.5411 97.7177,34.3321 C98.6047,33.8881 99.8477,33.9301 100.6917,34.3441 C101.1247,34.5581 101.4617,34.8771 101.7197,35.3191 C101.9797,35.7641 102.1097,36.3571 102.1097,37.0841 L102.1097,42.2501 C102.1097,42.6601 102.2487,43.0081 102.5237,43.2821 C102.7987,43.5571 103.1467,43.6961 103.5557,43.6961 C103.9647,43.6961 104.3127,43.5571 104.5877,43.2821 C104.8617,43.0071 105.0017,42.6591 105.0017,42.2501 L105.0017,37.0841 C105.0017,35.8641 104.7637,34.8141 104.2937,33.9631 C103.8197,33.1051 103.1617,32.4431 102.3377,31.9971" id="Fill-26"></path>
                <path d="M107.0994,31.8379 C106.8214,32.1069 106.6804,32.4579 106.6804,32.8839 L106.6804,42.2299 C106.6804,42.6399 106.8204,42.9859 107.0944,43.2609 C107.3704,43.5349 107.7174,43.6749 108.1264,43.6749 C108.5524,43.6749 108.9054,43.5339 109.1734,43.2559 C109.4384,42.9819 109.5734,42.6359 109.5734,42.2299 L109.5734,32.8839 C109.5734,32.4619 109.4374,32.1109 109.1694,31.8419 C108.6424,31.3169 107.6604,31.2979 107.0994,31.8379" id="Fill-28"></path>
                <path d="M106.8846,27.3169 C106.5406,27.6619 106.3656,28.0789 106.3656,28.5579 C106.3656,29.0369 106.5406,29.4549 106.8846,29.7999 C107.2306,30.1449 107.6486,30.3189 108.1266,30.3189 C108.6056,30.3189 109.0236,30.1449 109.3676,29.7999 C109.7126,29.4559 109.8876,29.0379 109.8876,28.5579 C109.8876,28.0779 109.7126,27.6609 109.3686,27.3169 C108.6796,26.6279 107.5736,26.6279 106.8846,27.3169" id="Fill-30"></path>
                <path d="M121.9783,31.6191 C121.6243,31.4521 121.2673,31.4261 120.9173,31.5411 C120.5653,31.6551 120.2983,31.8791 120.1163,32.2231 L116.8393,39.3591 L113.5213,32.2041 C113.3503,31.8811 113.0923,31.6581 112.7553,31.5431 C112.4153,31.4251 112.0593,31.4561 111.7493,31.6211 C111.3953,31.7881 111.1513,32.0361 111.0253,32.3581 C110.8973,32.6831 110.9123,33.0291 111.0673,33.3601 L115.5243,42.7581 C115.9063,43.4991 116.4643,43.6541 116.8663,43.6541 C117.2733,43.6541 117.8303,43.4961 118.1703,42.7471 L122.6243,33.3581 C122.7783,33.0281 122.7963,32.6921 122.6793,32.3601 C122.5613,32.0241 122.3253,31.7741 121.9783,31.6191" id="Fill-32"></path>
                <path d="M129.1482,33.9101 C129.7702,33.9101 130.3012,34.0521 130.7272,34.3311 C131.1642,34.6181 131.4912,34.9981 131.7292,35.4931 C131.8342,35.7101 131.9152,35.9551 131.9752,36.2471 L125.9312,36.2471 C125.9912,36.0301 126.0622,35.8371 126.1472,35.6621 C126.4122,35.1131 126.7882,34.6941 127.2982,34.3791 C127.8012,34.0671 128.4242,33.9101 129.1482,33.9101 M132.1602,32.1341 L132.1592,32.1341 C131.3192,31.6161 130.3052,31.3541 129.1482,31.3541 C127.9792,31.3541 126.9272,31.6221 126.0202,32.1501 C125.1122,32.6791 124.3902,33.4191 123.8752,34.3511 C123.3632,35.2791 123.1032,36.3611 123.1032,37.5671 C123.1032,38.7641 123.3782,39.8411 123.9202,40.7681 C124.4632,41.6991 125.2252,42.4391 126.1852,42.9671 C127.1392,43.4921 128.2432,43.7591 129.4632,43.7591 C130.1472,43.7591 130.8692,43.6321 131.6102,43.3831 C132.3562,43.1311 132.9912,42.8001 133.4932,42.4011 C133.9172,42.0761 133.9892,41.6941 133.9742,41.4311 C133.9562,41.0761 133.7862,40.7561 133.4642,40.4721 C133.2102,40.2581 132.9132,40.1701 132.5702,40.1631 C132.2482,40.1741 131.9472,40.2791 131.6742,40.4801 C131.4252,40.6671 131.0872,40.8361 130.6712,40.9831 C129.4902,41.4011 128.3812,41.2121 127.5272,40.7261 C126.9722,40.4111 126.5312,39.9771 126.2172,39.4361 C126.0842,39.2061 125.9772,38.9511 125.9002,38.6771 L133.4122,38.6771 C133.7922,38.6771 134.1132,38.5531 134.3642,38.3091 C134.6222,38.0611 134.7522,37.7481 134.7522,37.3781 C134.7522,36.2211 134.5312,35.1801 134.0942,34.2841 C133.6512,33.3761 133.0012,32.6521 132.1602,32.1341" id="Fill-34"></path>
                <path d="M143.9715,31.7842 C143.4925,31.4672 142.8095,31.3122 141.8845,31.3122 C140.9835,31.3122 140.1445,31.5262 139.3925,31.9482 C139.1475,32.0852 138.9155,32.2462 138.6895,32.4402 C138.6335,32.1852 138.5235,31.9742 138.3605,31.8092 C138.1135,31.5632 137.7595,31.4382 137.3075,31.4382 C136.8685,31.4382 136.5185,31.5672 136.2645,31.8202 C136.0105,32.0752 135.8815,32.4262 135.8815,32.8632 L135.8815,42.2502 C135.8815,42.7052 136.0125,43.0602 136.2695,43.3062 C136.5215,43.5512 136.8705,43.6752 137.3075,43.6752 C137.7615,43.6752 138.1175,43.5452 138.3655,43.2872 C138.6085,43.0342 138.7325,42.6842 138.7325,42.2502 L138.7325,36.1182 C138.7325,35.5712 138.8995,35.1362 139.2435,34.7852 C139.6015,34.4212 140.1075,34.1662 140.7455,34.0272 C141.4045,33.8872 142.1645,33.9002 142.9975,34.0682 C143.2295,34.1212 143.4505,34.1322 143.6515,34.0932 C143.8735,34.0542 144.0735,33.9572 144.2435,33.8052 C144.4235,33.6462 144.5445,33.4272 144.6005,33.1672 C144.6805,32.8582 144.7045,32.2672 143.9715,31.7842" id="Fill-36"></path>
                <path d="M153.2625,37.0049 C152.6255,36.6669 151.7545,36.3869 150.6735,36.1709 C149.9425,36.0219 149.3855,35.8689 149.0195,35.7189 C148.6215,35.5559 148.4645,35.4079 148.4025,35.3149 C148.3095,35.1719 148.2645,35.0159 148.2645,34.8369 C148.2645,34.6619 148.3135,34.4379 148.6965,34.2499 C149.3995,33.9029 150.6035,33.8999 151.3905,34.1459 C151.7385,34.2529 152.0705,34.4569 152.3795,34.7549 C152.6445,34.9999 152.9685,35.1589 153.3465,35.2279 C153.7485,35.2989 154.1145,35.2319 154.4365,35.0109 C154.7465,34.7769 154.9215,34.4669 154.9415,34.1139 C154.9615,33.7689 154.8395,33.4419 154.5855,33.1509 C154.1275,32.5869 153.5055,32.1399 152.7365,31.8229 C151.3945,31.2709 149.5415,31.1639 147.9545,31.7219 C147.2385,31.9739 146.6415,32.3609 146.1825,32.8759 C145.7005,33.4129 145.4565,34.0949 145.4565,34.9009 C145.4565,35.8209 145.8215,36.6089 146.5385,37.2389 C147.2335,37.8509 148.2965,38.2909 149.7975,38.5869 C151.0785,38.8169 151.6465,39.0879 151.8965,39.2749 C152.3115,39.5839 152.3505,39.8669 152.3445,40.0549 C152.3385,40.2379 152.2825,40.5139 151.8605,40.7759 C151.4945,41.0039 150.9365,41.1189 150.1995,41.1189 C149.6115,41.1189 149.0715,41.0139 148.5965,40.8039 C148.1245,40.5979 147.7835,40.3779 147.5755,40.1469 C147.3185,39.8709 147.0055,39.7089 146.6455,39.6619 C146.2605,39.6089 145.8945,39.7369 145.5405,40.0209 C145.2215,40.2639 145.0345,40.5859 144.9875,40.9759 C144.9385,41.3719 145.0635,41.7409 145.3565,42.0539 C145.8565,42.5529 146.5565,42.9679 147.4375,43.2849 C148.3075,43.5999 149.2645,43.7589 150.2835,43.7589 C151.3295,43.7589 152.2195,43.5919 152.9295,43.2629 C153.6565,42.9269 154.2165,42.4649 154.5965,41.8899 C154.9795,41.3119 155.1735,40.6549 155.1735,39.9409 C155.1735,39.3109 155.0205,38.7459 154.7175,38.2619 C154.4185,37.7799 153.9285,37.3579 153.2625,37.0049" id="Fill-38"></path>
                <path d="M164.6697,36.2471 L158.6257,36.2471 C158.6857,36.0301 158.7567,35.8371 158.8417,35.6621 C159.1067,35.1131 159.4827,34.6941 159.9927,34.3791 C160.4957,34.0671 161.1187,33.9101 161.8427,33.9101 C162.4647,33.9101 162.9957,34.0521 163.4217,34.3311 C163.8577,34.6181 164.1857,34.9981 164.4237,35.4931 C164.5267,35.7081 164.6077,35.9541 164.6697,36.2471 M167.0597,38.3091 C167.3157,38.0601 167.4467,37.7471 167.4467,37.3781 C167.4467,36.2211 167.2257,35.1801 166.7887,34.2841 C166.3457,33.3761 165.6947,32.6521 164.8537,32.1341 C164.0137,31.6161 162.9997,31.3541 161.8427,31.3541 C160.6737,31.3541 159.6217,31.6221 158.7147,32.1501 C157.8067,32.6791 157.0847,33.4191 156.5687,34.3511 C156.0577,35.2791 155.7977,36.3611 155.7977,37.5671 C155.7977,38.7641 156.0727,39.8411 156.6147,40.7681 C157.1577,41.6991 157.9197,42.4391 158.8797,42.9671 C159.8337,43.4921 160.9377,43.7591 162.1577,43.7591 C162.8417,43.7591 163.5637,43.6321 164.3047,43.3831 C165.0507,43.1311 165.6857,42.8001 166.1877,42.4011 C166.6107,42.0761 166.6837,41.6941 166.6687,41.4321 C166.6497,41.0761 166.4807,40.7561 166.1587,40.4731 C165.9047,40.2581 165.6067,40.1701 165.2647,40.1631 C164.9417,40.1741 164.6417,40.2791 164.3687,40.4801 C164.1197,40.6671 163.7817,40.8361 163.3657,40.9831 C162.1847,41.4011 161.0757,41.2121 160.2217,40.7261 C159.6667,40.4111 159.2257,39.9771 158.9117,39.4361 C158.7767,39.2061 158.6707,38.9511 158.5937,38.6771 L166.1067,38.6771 C166.4857,38.6771 166.8077,38.5531 167.0597,38.3091" id="Fill-40"></path>
            </g>
        </g>
    </g>
</svg>